<svg width="1500" height="1500" viewBox="0 0 1500 1500" fill="none" xmlns="http://www.w3.org/2000/svg">
<path d="M969.671 46.2401C970.002 46.5985 970.002 46.5998 970 46.6015C969.998 46.6034 969.995 46.6057 969.991 46.6092C969.984 46.6167 969.972 46.6279 969.956 46.643C969.925 46.6732 969.879 46.7189 969.817 46.7798C969.693 46.9018 969.509 47.0857 969.265 47.3301C968.777 47.8191 968.053 48.5526 967.112 49.5294C965.23 51.4829 962.479 54.4093 959.004 58.2955C952.055 66.0683 943.653 78.7444 932.091 94.1022C908.968 124.818 886 171.384 853 230.385C797.991 350.149 756.802 525.95 798.5 752.749C845.5 1008.38 785.744 1197.46 702 1304.22C620.5 1408.12 574 1425.72 580.383 1422.72C563 1433.72 549.999 1444.12 540.5 1449.72C535.936 1453.56 534.003 1454.17 531.534 1456.1C530.3 1457.07 531.262 1455.68 530.62 1456.17C530.3 1456.41 530.737 1455.8 530.573 1455.92C530.492 1455.98 530.662 1455.81 530.62 1455.84C530.6 1455.86 530.584 1455.87 530.573 1455.88C530.568 1455.88 530.564 1455.88 530.561 1455.88C530.558 1455.89 530.557 1455.89 530.277 1455.49C530.003 1455.09 529.998 1455.08 530 1455.08C530.003 1455.08 530.007 1455.08 530.012 1455.07C530.022 1455.07 530.037 1455.06 530.057 1455.04C530.097 1455.01 530.158 1454.97 530.239 1454.91C530.401 1454.79 530.643 1454.6 530.961 1454.36C531.598 1453.88 532.544 1453.16 533.774 1452.2C536.234 1450.27 539.835 1447.39 544.389 1443.55C553.498 1435.89 565.119 1423.29 580.383 1408.12C610.911 1377.77 647.557 1334.24 684.932 1274.85C759.68 1156.07 745.408 979.322 716.5 752.749C676.5 512.5 737.919 373.921 793 254C820.539 194.041 884.5 121.219 916 89.2188C929.781 75.2188 946.534 62.176 953.5 54.3845C956.983 50.4889 962.11 45.6516 964 43.6897C964.945 42.7089 968.098 47.1176 968.59 46.6247C968.836 46.3782 969.023 46.1925 969.149 46.0686C969.212 46.0068 969.259 45.96 969.291 45.9288C969.307 45.9133 969.32 45.9021 969.328 45.8942C969.332 45.8902 969.335 45.8865 969.337 45.8845C969.34 45.8839 969.36 45.9036 969.671 46.2401Z" fill="white"/>
</svg>
