<svg width="176" height="371" viewBox="0 0 176 371" fill="none" xmlns="http://www.w3.org/2000/svg">
<path d="M175.869 0.707194C176.001 0.801303 176.001 0.801632 176 0.802091C175.999 0.802576 175.998 0.803189 175.997 0.804115C175.993 0.80607 175.989 0.809007 175.983 0.812972C175.97 0.820915 175.952 0.832921 175.927 0.848907C175.877 0.880928 175.803 0.929222 175.706 0.993402C175.511 1.1218 175.221 1.3144 174.845 1.57088C174.092 2.08383 172.991 2.85223 171.602 3.87269C168.822 5.91366 165.461 9.24215 160.837 13.2748C151.587 21.3401 142.4 33.5675 129.2 49.0597C107.197 80.5073 90.7207 126.669 107.4 186.222C126.2 253.346 102.298 302.994 68.8 331.026C36.2 358.307 17.6 362.93 20.1532 362.142C13.2 365.03 7.99971 367.762 4.2 369.231C2.37458 370.24 1.60121 370.401 0.613631 370.908C0.119868 371.162 0.504703 370.797 0.248147 370.924C0.119881 370.988 0.294823 370.827 0.229327 370.859C0.196637 370.875 0.264765 370.831 0.248147 370.839C0.239881 370.843 0.233549 370.846 0.229327 370.848C0.227231 370.849 0.225492 370.85 0.224434 370.85C0.223326 370.851 0.222796 370.851 0.110761 370.746C0.00138791 370.643 -0.000750317 370.64 9.91879e-05 370.64C0.00110701 370.639 0.00260492 370.639 0.00461599 370.638C0.00863556 370.636 0.0146058 370.633 0.0226832 370.629C0.0388987 370.621 0.0633635 370.609 0.0957048 370.593C0.160374 370.562 0.257012 370.514 0.384404 370.451C0.639282 370.325 1.01744 370.135 1.50946 369.882C2.49363 369.376 3.93382 368.619 5.75563 367.612C9.39925 365.599 14.0478 362.292 20.1532 358.307C32.3645 350.338 47.0227 338.909 61.9728 323.314C91.8719 292.126 86.163 245.715 74.6 186.222C58.6 123.137 83.1677 86.7495 105.2 55.2606C116.216 39.5167 141.8 20.395 154.4 11.9925C159.913 8.31638 166.614 4.89162 169.4 2.84574C170.793 1.82282 172.844 0.552665 173.6 0.0375125C173.978 -0.220034 175.239 0.937595 175.436 0.808164C175.534 0.743449 175.609 0.69468 175.66 0.66215C175.685 0.645918 175.704 0.633645 175.716 0.625457C175.723 0.62137 175.728 0.618424 175.731 0.616347C175.733 0.615314 175.734 0.614334 175.735 0.613816C175.736 0.613658 175.744 0.618834 175.869 0.707194Z" fill="white"/>
</svg>
